<svg width="78" height="11" viewBox="0 0 78 11" fill="none" xmlns="http://www.w3.org/2000/svg">
<path d="M1.52 4.582H6.7V5.464H1.52V4.582ZM1.632 9.104H7.526V10H0.596V0.199999H7.316V1.096H1.632V9.104ZM9.96123 10V0.199999H10.8152L17.5772 8.712H17.1292V0.199999H18.1512V10H17.2972L10.5492 1.488H10.9972V10H9.96123ZM23.2539 10V1.096H19.8099V0.199999H27.7339V1.096H24.2899V10H23.2539ZM29.389 10V0.199999H33.057C33.8876 0.199999 34.6016 0.335333 35.199 0.606C35.7963 0.867333 36.2536 1.25 36.571 1.754C36.8976 2.24867 37.061 2.85067 37.061 3.56C37.061 4.25067 36.8976 4.848 36.571 5.352C36.2536 5.84667 35.7963 6.22933 35.199 6.5C34.6016 6.76133 33.8876 6.892 33.057 6.892H29.963L30.425 6.416V10H29.389ZM36.081 10L33.561 6.444H34.681L37.215 10H36.081ZM30.425 6.5L29.963 6.01H33.029C34.009 6.01 34.751 5.79533 35.255 5.366C35.7683 4.93667 36.025 4.33467 36.025 3.56C36.025 2.776 35.7683 2.16933 35.255 1.74C34.751 1.31067 34.009 1.096 33.029 1.096H29.963L30.425 0.606V6.5ZM37.9382 10L42.4182 0.199999H43.4402L47.9202 10H46.8282L42.7122 0.802H43.1322L39.0162 10H37.9382ZM39.7022 7.382L40.0102 6.542H45.7082L46.0162 7.382H39.7022ZM49.5413 10V0.199999H53.5313C54.5766 0.199999 55.4913 0.409999 56.2753 0.83C57.0686 1.24067 57.6846 1.81467 58.1233 2.552C58.562 3.28933 58.7813 4.13867 58.7813 5.1C58.7813 6.06133 58.562 6.91067 58.1233 7.648C57.6846 8.38533 57.0686 8.964 56.2753 9.384C55.4913 9.79467 54.5766 10 53.5313 10H49.5413ZM50.5773 9.104H53.4753C54.3433 9.104 55.0946 8.936 55.7293 8.6C56.3733 8.25467 56.8726 7.78333 57.2273 7.186C57.582 6.57933 57.7593 5.884 57.7593 5.1C57.7593 4.30667 57.582 3.61133 57.2273 3.014C56.8726 2.41667 56.3733 1.95 55.7293 1.614C55.0946 1.26867 54.3433 1.096 53.4753 1.096H50.5773V9.104ZM59.403 10L63.883 0.199999H64.905L69.385 10H68.293L64.177 0.802H64.597L60.481 10H59.403ZM61.167 7.382L61.475 6.542H67.173L67.481 7.382H61.167ZM73.7082 10.084C72.9802 10.084 72.2802 9.96733 71.6082 9.734C70.9455 9.49133 70.4322 9.18333 70.0682 8.81L70.4742 8.012C70.8195 8.348 71.2815 8.63267 71.8602 8.866C72.4482 9.09 73.0642 9.202 73.7082 9.202C74.3242 9.202 74.8235 9.12733 75.2062 8.978C75.5982 8.81933 75.8828 8.60933 76.0602 8.348C76.2468 8.08667 76.3402 7.79733 76.3402 7.48C76.3402 7.09733 76.2282 6.78933 76.0042 6.556C75.7895 6.32267 75.5048 6.14067 75.1502 6.01C74.7955 5.87 74.4035 5.74867 73.9742 5.646C73.5448 5.54333 73.1155 5.436 72.6862 5.324C72.2568 5.20267 71.8602 5.044 71.4962 4.848C71.1415 4.652 70.8522 4.39533 70.6282 4.078C70.4135 3.75133 70.3062 3.32667 70.3062 2.804C70.3062 2.31867 70.4322 1.87533 70.6842 1.474C70.9455 1.06333 71.3422 0.736666 71.8742 0.494C72.4062 0.242 73.0875 0.116 73.9182 0.116C74.4688 0.116 75.0148 0.195333 75.5562 0.354C76.0975 0.503333 76.5642 0.713333 76.9562 0.983999L76.6062 1.81C76.1862 1.53 75.7382 1.32467 75.2622 1.194C74.7955 1.06333 74.3428 0.998 73.9042 0.998C73.3162 0.998 72.8308 1.07733 72.4482 1.236C72.0655 1.39467 71.7808 1.60933 71.5942 1.88C71.4168 2.14133 71.3282 2.44 71.3282 2.776C71.3282 3.15867 71.4355 3.46667 71.6502 3.7C71.8742 3.93333 72.1635 4.11533 72.5182 4.246C72.8822 4.37667 73.2788 4.49333 73.7082 4.596C74.1375 4.69867 74.5622 4.81067 74.9822 4.932C75.4115 5.05333 75.8035 5.212 76.1582 5.408C76.5222 5.59467 76.8115 5.84667 77.0262 6.164C77.2502 6.48133 77.3622 6.89667 77.3622 7.41C77.3622 7.886 77.2315 8.32933 76.9702 8.74C76.7088 9.14133 76.3075 9.468 75.7662 9.72C75.2342 9.96267 74.5482 10.084 73.7082 10.084Z" fill="black"/>
</svg>
