<svg width="78" height="65" viewBox="0 0 78 65" fill="none" xmlns="http://www.w3.org/2000/svg">
<path d="M15.3265 48.632V54.8113M1 6.45912L15.3265 1H75.4184M69.051 63L75.8163 54.8113V1H75.4184M75.4184 1L68.6531 6.45912" stroke="#A3BCD5"/>
<path d="M1 6.45911V56.4251V62.9071H68.7576V6.45911H1Z" fill="#011140" stroke="#A3BCD5"/>
<path d="M1 6.45911V56.4251V62.9071H68.7576V6.45911H1Z" stroke="#A3BCD5"/>
<path d="M10.4705 38.8075C9.32245 38.8075 8.22345 38.6465 7.17345 38.3245C6.12345 37.9885 5.29045 37.5615 4.67445 37.0435L5.61945 34.9225C6.20745 35.3845 6.93545 35.7695 7.80345 36.0775C8.67145 36.3855 9.56045 36.5395 10.4705 36.5395C11.2405 36.5395 11.8635 36.4555 12.3395 36.2875C12.8155 36.1195 13.1655 35.8955 13.3895 35.6155C13.6135 35.3215 13.7255 34.9925 13.7255 34.6285C13.7255 34.1805 13.5645 33.8235 13.2425 33.5575C12.9205 33.2775 12.5005 33.0605 11.9825 32.9065C11.4785 32.7385 10.9115 32.5845 10.2815 32.4445C9.66545 32.3045 9.04245 32.1435 8.41245 31.9615C7.79645 31.7655 7.22945 31.5205 6.71145 31.2265C6.20745 30.9185 5.79445 30.5125 5.47245 30.0085C5.15045 29.5045 4.98945 28.8605 4.98945 28.0765C4.98945 27.2785 5.19945 26.5505 5.61945 25.8925C6.05345 25.2205 6.70445 24.6885 7.57245 24.2965C8.45445 23.8905 9.56745 23.6875 10.9115 23.6875C11.7935 23.6875 12.6685 23.7995 13.5365 24.0235C14.4045 24.2475 15.1605 24.5695 15.8045 24.9895L14.9435 27.1105C14.2855 26.7185 13.6065 26.4315 12.9065 26.2495C12.2065 26.0535 11.5345 25.9555 10.8905 25.9555C10.1345 25.9555 9.51845 26.0465 9.04245 26.2285C8.58045 26.4105 8.23745 26.6485 8.01345 26.9425C7.80345 27.2365 7.69845 27.5725 7.69845 27.9505C7.69845 28.3985 7.85245 28.7625 8.16045 29.0425C8.48245 29.3085 8.89545 29.5185 9.39945 29.6725C9.91745 29.8265 10.4915 29.9805 11.1215 30.1345C11.7515 30.2745 12.3745 30.4355 12.9905 30.6175C13.6205 30.7995 14.1875 31.0375 14.6915 31.3315C15.2095 31.6255 15.6225 32.0245 15.9305 32.5285C16.2525 33.0325 16.4135 33.6695 16.4135 34.4395C16.4135 35.2235 16.1965 35.9515 15.7625 36.6235C15.3425 37.2815 14.6915 37.8135 13.8095 38.2195C12.9275 38.6115 11.8145 38.8075 10.4705 38.8075ZM19.9605 38.5975V23.8975H22.6905V38.5975H19.9605ZM32.0635 38.8075C30.9155 38.8075 29.8165 38.6465 28.7665 38.3245C27.7165 37.9885 26.8835 37.5615 26.2675 37.0435L27.2125 34.9225C27.8005 35.3845 28.5285 35.7695 29.3965 36.0775C30.2645 36.3855 31.1535 36.5395 32.0635 36.5395C32.8335 36.5395 33.4565 36.4555 33.9325 36.2875C34.4085 36.1195 34.7585 35.8955 34.9825 35.6155C35.2065 35.3215 35.3185 34.9925 35.3185 34.6285C35.3185 34.1805 35.1575 33.8235 34.8355 33.5575C34.5135 33.2775 34.0935 33.0605 33.5755 32.9065C33.0715 32.7385 32.5045 32.5845 31.8745 32.4445C31.2585 32.3045 30.6355 32.1435 30.0055 31.9615C29.3895 31.7655 28.8225 31.5205 28.3045 31.2265C27.8005 30.9185 27.3875 30.5125 27.0655 30.0085C26.7435 29.5045 26.5825 28.8605 26.5825 28.0765C26.5825 27.2785 26.7925 26.5505 27.2125 25.8925C27.6465 25.2205 28.2975 24.6885 29.1655 24.2965C30.0475 23.8905 31.1605 23.6875 32.5045 23.6875C33.3865 23.6875 34.2615 23.7995 35.1295 24.0235C35.9975 24.2475 36.7535 24.5695 37.3975 24.9895L36.5365 27.1105C35.8785 26.7185 35.1995 26.4315 34.4995 26.2495C33.7995 26.0535 33.1275 25.9555 32.4835 25.9555C31.7275 25.9555 31.1115 26.0465 30.6355 26.2285C30.1735 26.4105 29.8305 26.6485 29.6065 26.9425C29.3965 27.2365 29.2915 27.5725 29.2915 27.9505C29.2915 28.3985 29.4455 28.7625 29.7535 29.0425C30.0755 29.3085 30.4885 29.5185 30.9925 29.6725C31.5105 29.8265 32.0845 29.9805 32.7145 30.1345C33.3445 30.2745 33.9675 30.4355 34.5835 30.6175C35.2135 30.7995 35.7805 31.0375 36.2845 31.3315C36.8025 31.6255 37.2155 32.0245 37.5235 32.5285C37.8455 33.0325 38.0065 33.6695 38.0065 34.4395C38.0065 35.2235 37.7895 35.9515 37.3555 36.6235C36.9355 37.2815 36.2845 37.8135 35.4025 38.2195C34.5205 38.6115 33.4075 38.8075 32.0635 38.8075ZM5.91345 58.5975V43.8975H8.16045L14.5865 54.6285H13.4105L19.7315 43.8975H21.9785L21.9995 58.5975H19.4165L19.3955 47.9505H19.9415L14.5655 56.9175H13.3475L7.88745 47.9505H8.51745V58.5975H5.91345ZM29.3301 50.0085H36.6381V52.2555H29.3301V50.0085ZM29.5401 56.3085H37.8351V58.5975H26.8101V43.8975H37.5411V46.1865H29.5401V56.3085ZM41.7185 58.5975V43.8975H48.1445C49.7405 43.8975 51.1405 44.2055 52.3445 44.8215C53.5485 45.4375 54.4865 46.2915 55.1585 47.3835C55.8305 48.4755 56.1665 49.7635 56.1665 51.2475C56.1665 52.7175 55.8305 54.0055 55.1585 55.1115C54.4865 56.2035 53.5485 57.0575 52.3445 57.6735C51.1405 58.2895 49.7405 58.5975 48.1445 58.5975H41.7185ZM44.4485 56.2875H48.0185C49.1245 56.2875 50.0765 56.0775 50.8745 55.6575C51.6865 55.2375 52.3095 54.6495 52.7435 53.8935C53.1915 53.1375 53.4155 52.2555 53.4155 51.2475C53.4155 50.2255 53.1915 49.3435 52.7435 48.6015C52.3095 47.8455 51.6865 47.2575 50.8745 46.8375C50.0765 46.4175 49.1245 46.2075 48.0185 46.2075H44.4485V56.2875Z" fill="#E0EDF5"/>
<rect x="53.8848" y="9.99521" width="3.74614" height="15.5975" fill="#98C2DC"/>
<rect x="47.4849" y="19.5597" width="3.53151" height="16.5455" transform="rotate(-90 47.4849 19.5597)" fill="#98C2DC"/>
</svg>
